<svg width="525" height="213" viewBox="0 0 525 213" fill="none" xmlns="http://www.w3.org/2000/svg">
<g filter="url(#filter0_f_185_123)">
<path d="M204.098 104.299C204.098 159.416 159.416 204.098 104.299 204.098C49.1815 204.098 4.5 159.416 4.5 104.299C4.5 49.1815 49.1815 4.5 104.299 4.5C159.416 4.5 204.098 49.1815 204.098 104.299Z" fill="url(#paint0_radial_185_123)" stroke="white"/>
<path d="M181.292 147.965C183.41 148.269 190.977 147.358 190.977 147.358L195.747 147.671C202.63 132.487 203.091 126.279 204.597 118.588C204.102 115.664 203.304 113.684 202.176 113.492C196.365 114.464 189.766 106.304 187.194 102.103L179.324 91.9278L175.39 86.4607L170.85 79.9307C169.992 79.0195 167.883 77.1971 166.31 77.1971C164.342 77.1971 157.684 75.0711 157.381 74.7673C157.078 74.4636 152.084 72.3375 150.117 71.4264C148.149 70.5152 146.636 70.0596 145.728 69.604C144.82 69.1484 140.885 68.0854 139.977 67.4779C139.069 66.8705 135.135 64.8963 133.773 64.2888C132.683 63.8029 127.871 61.4541 125.601 60.3404L120.455 58.0625C119.295 57.7587 115.794 56.3312 111.072 53.051C106.351 51.2286 105.473 51.8867 105.624 52.4435V54.7215C105.675 56.2401 105.867 59.3988 106.23 59.8848C106.684 60.4923 108.802 64.137 110.618 65.5037C117.835 70.9349 124.439 74.9834 130.746 82.0567C140.89 90.3156 152.425 100.143 152.992 113.796C150.448 118.902 153.749 120.981 153.749 125.489L155.867 130.956L158.44 136.12L162.526 141.739C168.164 147.186 173.657 146.871 181.292 147.965Z" fill="white"/>
<path d="M28.6155 147.965C26.4968 148.269 18.9301 147.358 18.9301 147.358L14.1604 147.671C7.27719 132.487 6.81593 126.279 5.31055 118.588C5.80565 115.664 6.60323 113.684 7.73136 113.492C13.5426 114.464 20.1408 106.304 22.7135 102.103L30.5829 91.9278L34.5176 86.4607L39.0576 79.9307C39.9152 79.0195 42.0238 77.1971 43.5976 77.1971C45.565 77.1971 52.2237 75.0711 52.5264 74.7673C52.8291 74.4636 57.8231 72.3375 59.7904 71.4264C61.7578 70.5152 63.2711 70.0596 64.1791 69.604C65.0872 69.1484 69.0219 68.0854 69.9299 67.4779C70.8379 66.8705 74.7726 64.8963 76.1346 64.2888C77.2242 63.8029 82.0366 61.4541 84.3066 60.3404L89.452 58.0625C90.6123 57.7587 94.1131 56.3312 98.8347 53.051C103.556 51.2286 104.434 51.8867 104.283 52.4435V54.7215C104.232 56.2401 104.041 59.3988 103.677 59.8848C103.223 60.4923 101.105 64.137 99.2888 65.5037C92.0723 70.9349 85.468 74.9834 79.1613 82.0567C69.0171 90.3156 57.482 100.143 56.9151 113.796C59.4594 118.902 56.1584 120.981 56.1584 125.489L54.0397 130.956L51.467 136.12L47.381 141.739C41.7437 147.186 36.2503 146.871 28.6155 147.965Z" fill="white"/>
<path d="M257.821 96.752C257.693 94.256 256.157 92.464 253.725 91.76C252.381 91.376 251.037 91.44 249.821 91.376C249.373 91.376 249.053 91.44 248.733 91.376C246.749 91.312 244.893 91.824 243.101 92.592C241.437 93.296 239.837 94.192 238.429 95.28C234.717 98.032 231.645 101.36 229.277 105.328C228.317 106.992 227.421 108.72 226.845 110.512C226.397 111.92 226.141 113.328 226.205 114.8C226.269 116.4 227.037 117.616 228.509 118.32C229.085 118.576 229.661 118.768 230.301 118.96C232.093 119.344 233.949 119.536 235.869 119.664C237.149 119.728 238.429 119.664 239.773 119.728C241.117 119.792 242.525 119.856 243.869 120.048C245.853 120.304 247.069 121.776 247.197 123.76C247.261 125.168 247.005 126.448 246.493 127.792C246.301 128.176 246.045 128.56 245.661 128.752L244.893 129.264C241.501 131.248 238.109 133.296 234.781 135.344C233.757 135.984 232.733 136.688 231.773 137.52C230.813 138.224 229.981 139.12 229.213 139.952C228.573 140.656 228.125 141.488 227.933 142.448C227.869 143.216 228.253 143.984 228.957 144.24C229.853 144.496 230.813 144.688 231.773 144.56C232.797 144.432 233.821 144.304 234.845 143.92C237.277 143.088 239.581 141.936 241.693 140.464C244.573 138.416 246.941 135.856 248.925 132.976C250.077 131.248 251.101 129.328 251.613 127.28C251.997 125.808 252.253 124.336 251.869 122.864C251.485 121.328 250.717 120.24 249.373 119.536C248.797 119.152 248.157 118.896 247.517 118.768C245.853 118.32 244.189 118.064 242.525 118C241.437 117.936 240.413 117.936 239.325 118C237.661 118 235.997 117.744 234.333 117.552C233.821 117.488 233.309 117.296 232.861 117.104C232.093 116.72 231.645 116.08 231.581 115.184C231.581 114.416 231.645 113.584 231.837 112.816C232.349 111.088 233.181 109.552 234.013 108.016C235.421 105.52 237.213 103.28 239.133 101.168C241.309 98.8 243.741 96.752 246.493 95.152C247.389 94.704 248.285 94.256 249.245 94C249.821 93.808 250.333 93.936 250.781 94.384C251.485 95.024 251.933 95.856 252.061 96.816C252.189 98.096 252.125 99.44 251.869 100.72C251.421 102.384 250.717 103.984 249.949 105.584C249.565 106.224 249.245 106.864 248.925 107.568C248.669 108.08 248.925 108.528 249.501 108.656C250.269 108.848 251.037 108.848 251.677 108.4C252.125 108.08 252.573 107.76 253.021 107.376C255.133 105.264 256.541 102.704 257.437 99.888C257.821 98.864 257.821 97.84 257.821 96.752ZM244.957 131.12C244.893 131.312 244.765 131.568 244.637 131.76C243.037 134.448 241.117 136.944 238.813 138.992C236.893 140.72 234.717 142 232.285 142.832C231.901 142.96 231.517 143.024 231.389 143.024C230.813 143.024 230.429 142.64 230.557 142.256C230.621 142.064 230.685 141.808 230.813 141.552C231.133 140.912 231.581 140.336 232.093 139.76C233.117 138.672 234.205 137.648 235.421 136.752C238.301 134.512 241.501 132.656 244.637 130.8C244.701 130.736 244.893 130.736 244.957 130.8C245.021 130.864 245.021 130.992 244.957 131.12ZM292.742 124.528C292.358 124.464 292.038 124.592 291.654 124.72C291.334 124.912 291.078 124.784 290.95 124.4C290.694 123.824 290.63 123.184 290.63 122.544C290.694 121.264 290.758 119.92 290.758 118.576C290.822 117.808 290.886 116.976 290.886 116.144C290.886 115.76 290.822 115.376 290.758 115.056C290.694 114.608 290.374 114.352 289.99 114.288H288.134C287.814 114.288 287.622 114.48 287.494 114.672C287.366 114.928 287.238 115.12 287.174 115.376C286.662 116.656 286.214 117.936 285.766 119.28C284.23 123.504 282.438 127.6 280.134 131.44C279.238 132.912 278.214 134.384 277.19 135.856C276.87 136.368 276.358 136.752 275.974 137.264C275.846 137.328 275.526 137.264 275.462 137.136C275.398 137.008 275.27 136.816 275.27 136.624C275.27 136.048 275.206 135.472 275.27 134.96L276.038 128.56C276.23 127.152 276.23 125.68 276.166 124.208C276.166 123.44 275.974 122.736 275.654 122.032C275.398 121.264 274.822 120.816 274.054 120.624C273.03 120.368 272.006 120.432 271.046 120.56C270.662 120.56 270.278 120.752 270.022 121.008C269.702 121.392 269.318 121.776 269.062 122.16C268.55 122.864 268.102 123.504 267.654 124.208C266.182 126.512 264.646 128.816 263.11 131.184C262.918 131.504 262.662 131.76 262.406 132.08C262.342 132.144 262.214 132.144 262.086 132.208C262.086 132.144 261.958 132.016 261.958 131.888C262.214 129.84 262.47 127.792 262.854 125.744L263.238 122.928C263.366 121.904 263.302 120.944 262.982 119.984C262.726 119.408 262.406 118.96 261.894 118.704L261.19 118.384C260.038 118 258.822 118.064 257.606 118.192C257.542 118.192 257.478 118.192 257.478 118.256C257.35 118.384 257.158 118.512 257.094 118.64C257.03 118.768 257.03 118.896 257.03 119.024C257.286 121.008 257.03 123.056 256.71 125.04C256.454 126.64 256.198 128.24 256.006 129.904C255.75 131.312 255.878 132.784 256.326 134.192C256.454 134.64 256.646 135.152 256.902 135.536C257.222 136.112 257.798 136.496 258.438 136.56C259.27 136.624 260.102 136.688 260.87 136.816C261.83 136.944 262.598 136.56 263.174 135.792C263.366 135.472 263.622 135.152 263.75 134.832C264.198 134.128 264.582 133.36 264.966 132.656C266.118 130.736 267.206 128.752 268.358 126.768C268.87 125.936 269.51 125.104 270.086 124.272C270.214 124.144 270.342 124.016 270.47 123.824C270.598 123.696 270.854 123.568 270.918 123.696C270.982 123.824 271.11 123.888 271.11 124.016C271.046 125.424 270.918 126.768 270.854 128.176C270.79 129.328 270.662 130.416 270.598 131.568H270.662C270.662 132.272 270.598 132.976 270.662 133.616C270.726 134.896 270.982 136.112 271.494 137.328C271.942 138.352 272.774 138.992 273.926 139.12C274.694 139.184 275.398 139.184 276.166 139.248C276.87 139.248 277.446 138.992 277.894 138.608C278.342 138.224 278.79 137.84 279.11 137.392C279.558 136.816 280.006 136.176 280.39 135.536C281.99 132.976 283.334 130.288 284.55 127.472L286.406 122.928C286.47 122.736 286.598 122.608 286.726 122.48C286.726 122.416 286.79 122.416 286.854 122.416C286.918 122.416 287.046 122.416 287.046 122.48L287.622 124.08C288.006 124.912 288.71 125.488 289.67 125.552C290.31 125.68 291.014 125.68 291.718 125.68C291.974 125.68 292.23 125.616 292.422 125.488C292.678 125.424 292.806 125.168 292.934 124.976C293.062 124.848 292.934 124.592 292.742 124.528ZM320.045 125.36C319.981 125.36 319.917 125.424 319.917 125.424C319.597 125.808 319.341 126.128 319.085 126.448L315.437 131.12C313.837 133.168 311.981 135.088 310.125 136.944C308.653 138.416 307.053 139.76 305.261 140.848C304.173 141.488 303.021 142.064 301.805 142.32C301.229 142.448 300.781 142.32 300.333 142C299.949 141.744 299.565 141.36 299.309 140.976C298.733 140.08 298.413 139.12 298.285 138.16C298.221 137.008 298.221 135.856 298.477 134.768C298.797 132.976 299.309 131.312 299.885 129.648C300.077 129.264 300.269 128.88 300.845 128.816C302.125 128.688 303.277 128.176 304.365 127.536C306.221 126.448 307.885 125.104 309.357 123.568C309.805 123.056 310.253 122.48 310.637 121.904C310.893 121.456 311.085 120.88 311.085 120.304C311.149 119.408 310.637 118.64 309.805 118.448C309.037 118.192 308.269 118 307.437 118H305.133C303.277 118.064 301.549 118.64 300.077 119.792C298.733 120.816 297.645 121.968 296.685 123.312C295.597 124.912 294.765 126.576 294.061 128.368C293.293 130.096 292.973 131.952 292.973 133.872C292.973 134.512 292.973 135.152 293.037 135.728C293.293 137.584 293.933 139.312 295.085 140.784C295.981 141.872 297.069 142.64 298.541 142.96C299.373 143.216 300.269 143.216 301.101 143.28C302.701 143.408 304.109 142.96 305.453 142.256C306.413 141.744 307.309 141.104 308.141 140.464C309.421 139.376 310.573 138.224 311.661 137.072C314.861 133.68 317.485 129.904 319.917 126C320.045 125.872 320.109 125.68 320.173 125.488C320.173 125.488 320.109 125.36 320.045 125.36ZM300.653 127.856C301.741 125.488 303.085 123.312 305.069 121.584L305.837 121.072C305.965 121.008 306.285 121.136 306.285 121.328C306.285 121.456 306.285 121.584 306.349 121.776C306.221 122.032 306.157 122.416 306.029 122.8C305.773 123.504 305.389 124.144 304.941 124.784C304.045 126.064 302.893 127.152 301.613 127.984C301.357 128.112 301.101 128.176 300.909 128.304C300.845 128.304 300.781 128.24 300.717 128.24C300.717 128.176 300.653 128.112 300.653 128.048V127.856ZM343.42 125.36C343.356 125.36 343.292 125.424 343.292 125.424C342.972 125.808 342.716 126.128 342.46 126.448L338.812 131.12C337.212 133.168 335.356 135.088 333.5 136.944C332.028 138.416 330.428 139.76 328.636 140.848C327.548 141.488 326.396 142.064 325.18 142.32C324.604 142.448 324.156 142.32 323.708 142C323.324 141.744 322.94 141.36 322.684 140.976C322.108 140.08 321.788 139.12 321.66 138.16C321.596 137.008 321.596 135.856 321.852 134.768C322.172 132.976 322.684 131.312 323.26 129.648C323.452 129.264 323.644 128.88 324.22 128.816C325.5 128.688 326.652 128.176 327.74 127.536C329.596 126.448 331.26 125.104 332.732 123.568C333.18 123.056 333.628 122.48 334.012 121.904C334.268 121.456 334.46 120.88 334.46 120.304C334.524 119.408 334.012 118.64 333.18 118.448C332.412 118.192 331.644 118 330.812 118H328.508C326.652 118.064 324.924 118.64 323.452 119.792C322.108 120.816 321.02 121.968 320.06 123.312C318.972 124.912 318.14 126.576 317.436 128.368C316.668 130.096 316.348 131.952 316.348 133.872C316.348 134.512 316.348 135.152 316.412 135.728C316.668 137.584 317.308 139.312 318.46 140.784C319.356 141.872 320.444 142.64 321.916 142.96C322.748 143.216 323.644 143.216 324.476 143.28C326.076 143.408 327.484 142.96 328.828 142.256C329.788 141.744 330.684 141.104 331.516 140.464C332.796 139.376 333.948 138.224 335.036 137.072C338.236 133.68 340.86 129.904 343.292 126C343.42 125.872 343.484 125.68 343.548 125.488C343.548 125.488 343.484 125.36 343.42 125.36ZM324.028 127.856C325.116 125.488 326.46 123.312 328.444 121.584L329.212 121.072C329.34 121.008 329.66 121.136 329.66 121.328C329.66 121.456 329.66 121.584 329.724 121.776C329.596 122.032 329.532 122.416 329.404 122.8C329.148 123.504 328.764 124.144 328.316 124.784C327.42 126.064 326.268 127.152 324.988 127.984C324.732 128.112 324.476 128.176 324.284 128.304C324.22 128.304 324.156 128.24 324.092 128.24C324.092 128.176 324.028 128.112 324.028 128.048V127.856ZM365.643 104.688C365.579 104.56 365.515 104.368 365.451 104.368C365.003 104.24 364.555 104.176 364.107 104.112C362.827 104.048 361.483 104.048 360.139 103.984V104.048C359.307 104.048 358.411 103.984 357.515 104.048C355.083 104.176 355.339 104.048 356.235 102C356.555 101.296 356.939 100.656 357.195 99.952L357.963 97.776C358.155 97.2 358.155 96.56 358.091 95.92C358.091 95.408 357.707 94.96 357.131 94.96C356.171 94.896 355.275 94.896 354.315 94.832C353.291 94.832 352.459 95.216 351.755 95.92C350.987 96.56 350.411 97.392 349.835 98.224C349.003 99.568 348.235 100.976 347.595 102.384C347.275 102.96 347.019 103.536 346.763 104.112C346.571 104.432 346.315 104.688 345.867 104.688C344.395 104.816 342.859 104.944 341.387 105.136C340.107 105.264 337.291 106.928 344.907 106.416H345.291C345.419 106.416 345.611 106.672 345.611 106.8C345.483 107.12 345.419 107.44 345.291 107.696C343.883 111.536 342.795 115.504 342.091 119.536C341.643 121.776 341.387 124.016 341.259 126.32C341.067 128.432 341.259 130.608 341.579 132.72C341.771 134.064 342.091 135.408 342.603 136.752C342.923 137.392 343.179 137.968 343.627 138.544C344.267 139.312 345.035 139.76 346.059 139.888C346.443 139.888 346.827 139.888 347.211 139.952C348.427 140.016 349.387 139.568 350.283 138.8C350.731 138.416 351.115 138.032 351.499 137.584C352.203 136.816 352.907 135.984 353.483 135.088C354.891 133.104 356.235 131.056 357.579 128.944C358.027 128.368 358.347 127.664 358.731 127.024C358.923 126.768 358.987 126.448 359.115 126.128C359.115 126.064 359.051 125.872 358.987 125.808C358.923 125.744 358.731 125.744 358.667 125.808C358.347 126 358.219 126.256 358.091 126.512C356.619 128.944 354.955 131.248 353.227 133.552C352.331 134.832 351.307 136.048 350.155 137.072C349.515 137.648 348.875 138.096 348.171 138.608C347.979 138.736 347.723 138.8 347.531 138.928C347.339 138.992 347.083 138.928 347.019 138.8C346.763 138.544 346.571 138.352 346.443 138.032C345.995 137.072 345.739 136.048 345.611 134.96C345.483 133.552 345.419 132.208 345.483 130.8C345.611 128.688 345.867 126.512 346.251 124.4C346.699 121.968 347.275 119.472 347.915 117.04C348.107 116.464 348.299 115.824 348.683 115.312C350.475 112.752 352.075 110 353.611 107.312C353.739 106.992 353.931 106.736 354.059 106.48C354.315 106.032 354.635 105.84 355.083 105.776C356.811 105.712 358.539 105.584 360.203 105.456C361.931 105.328 363.595 105.2 365.323 105.008C365.323 105.008 365.387 104.944 365.451 104.944C365.579 104.88 365.643 104.816 365.643 104.688ZM413.805 95.856C413.805 95.344 413.613 94.768 413.421 94.256C413.165 93.744 412.781 93.296 412.141 93.232C411.245 93.104 410.285 93.168 409.389 93.296C408.685 93.424 408.109 93.872 407.853 94.576C407.661 95.088 407.469 95.6 407.405 96.176L406.829 99.696C406.445 102.384 405.997 105.072 405.485 107.76C405.037 110.576 404.525 113.392 404.013 116.272C403.885 116.976 403.501 117.36 402.797 117.488C399.469 118 396.205 118.768 392.941 119.6C392.749 119.664 392.621 119.664 392.429 119.664C392.237 119.728 391.981 119.536 392.045 119.344L392.237 118.256C393.069 115.504 393.901 112.752 394.669 110C395.309 107.696 395.949 105.456 396.525 103.152C396.909 101.552 396.845 99.952 396.653 98.288C396.461 96.88 395.693 95.728 394.285 95.216C393.453 94.896 392.493 94.704 391.533 94.896C391.213 95.024 390.829 95.024 390.445 95.024C389.421 95.024 388.461 95.344 387.501 95.664C386.093 96.176 384.813 96.944 383.597 97.84C380.589 100.016 378.285 102.896 376.557 106.16C375.789 107.504 375.341 108.912 375.021 110.384C374.829 111.472 374.893 112.496 375.213 113.52C375.597 114.864 376.493 115.76 377.837 116.208C379.245 116.72 380.781 116.656 382.253 116.464C382.445 116.464 382.637 116.336 382.765 116.272C382.893 116.272 383.021 116.208 383.085 116.08C383.341 115.952 383.469 115.76 383.469 115.504C383.469 115.184 383.277 114.992 383.021 114.992C382.061 114.864 381.677 114.288 381.357 113.456C380.973 112.368 380.909 111.28 381.165 110.128C381.869 106.608 383.469 103.536 385.645 100.784C386.349 99.888 387.245 99.184 388.013 98.416C388.525 97.968 389.165 97.584 389.805 97.328C390.061 97.2 390.445 97.392 390.509 97.712C390.573 98.544 390.509 99.312 390.381 100.144C389.933 102.704 389.357 105.264 388.589 107.76C387.501 111.408 386.477 115.056 385.389 118.704L384.621 121.584C384.493 122.16 384.173 122.416 383.661 122.672L382.125 123.248C380.589 123.952 379.053 124.656 377.517 125.424C376.877 125.744 376.237 126.128 375.661 126.576C375.469 126.704 375.277 126.896 375.149 127.088C375.021 127.28 375.149 127.664 375.341 127.728C375.789 127.856 376.237 127.856 376.621 127.728L378.029 127.152C379.693 126.512 381.421 125.872 383.085 125.168C383.533 125.04 383.725 125.168 383.661 125.552C383.533 126.256 383.341 126.896 383.213 127.6C382.509 131.12 381.549 134.64 381.485 138.288C381.229 139.248 381.485 140.272 381.549 141.232C381.741 143.28 382.765 144.688 384.493 145.712C385.773 146.48 387.053 146.544 388.461 146.032C388.653 145.968 388.781 145.712 388.845 145.456C388.973 145.2 388.845 144.944 388.589 144.88C387.565 144.688 387.373 143.92 387.373 143.088C387.373 142.064 387.373 141.04 387.565 140.08C387.885 138.352 388.141 136.624 388.461 134.896C389.037 131.184 389.933 127.472 390.829 123.76C390.893 123.504 391.021 123.184 391.085 122.864C391.213 122.608 391.469 122.352 391.725 122.224C392.109 122.096 392.429 121.968 392.813 121.904C394.541 121.392 396.269 120.88 397.997 120.432C399.597 119.984 401.197 119.664 402.733 119.28C403.181 119.216 403.437 119.408 403.373 119.92C403.309 120.752 403.181 121.648 403.053 122.48C402.733 124.848 402.477 127.216 402.093 129.52C401.901 130.992 401.837 132.4 401.645 133.808C401.517 135.088 401.453 136.432 401.389 138.224C401.389 138.736 401.389 139.696 401.517 140.72C401.517 141.296 401.645 141.808 401.773 142.384C402.029 143.088 402.221 143.792 402.541 144.496C403.117 145.52 403.949 146.224 405.165 146.416C406.061 146.608 407.021 146.544 407.917 146.416C408.429 146.352 408.877 146.16 409.197 145.712C409.325 145.52 409.261 145.136 409.069 145.072L408.557 144.88C407.981 144.816 407.661 144.496 407.533 143.92C407.341 143.152 407.213 142.384 407.213 141.552C407.021 138.8 407.341 136.048 407.661 133.36C408.045 130.288 408.621 127.28 409.133 124.336C409.453 122.544 409.837 120.752 410.157 119.024C410.285 118.512 410.477 118.192 410.925 118L411.565 117.616C411.821 117.424 411.757 116.976 411.437 116.848C410.861 116.72 410.669 116.4 410.797 115.76C411.437 112.368 412.013 108.912 412.589 105.456C413.037 102.896 413.421 100.336 413.805 97.712C413.869 97.136 413.933 96.496 413.805 95.856ZM431.911 118.192C431.783 117.424 431.399 116.784 430.951 116.144C430.247 115.184 429.287 114.672 428.071 114.608C427.495 114.544 426.919 114.608 426.343 114.672C425.575 114.736 424.743 114.864 423.911 115.056C421.287 115.504 419.175 116.912 417.575 119.088C416.743 120.304 416.167 121.648 416.231 123.184C416.295 124.016 416.103 124.656 415.527 125.232C415.271 125.488 415.015 125.808 414.823 126.128C413.671 127.92 413.095 129.904 413.223 132.016C413.287 133.488 413.735 134.896 414.695 136.048C415.527 137.2 416.679 137.776 418.023 137.904C418.343 137.968 418.663 137.904 418.983 137.904V137.968C419.687 137.904 420.391 137.776 421.031 137.712C422.759 137.52 424.167 136.816 425.447 135.728C426.087 135.152 426.663 134.576 427.175 133.936C427.687 133.36 428.071 132.784 428.519 132.144C430.695 128.88 431.911 125.296 432.231 121.392C432.359 120.304 432.167 119.216 431.911 118.192ZM429.351 126.128C428.711 128.432 427.751 130.608 426.343 132.592C425.383 133.872 424.359 135.024 422.951 135.856C422.375 136.24 421.735 136.496 421.095 136.816C420.711 136.944 420.263 136.88 419.879 136.624C419.431 136.304 419.111 135.92 418.919 135.472C418.663 134.96 418.471 134.448 418.471 133.872C418.407 132.336 418.663 130.864 419.111 129.392C419.175 129.072 419.495 128.88 419.815 129.008C421.607 129.52 423.335 129.072 425.063 128.816C425.255 128.752 425.511 128.56 425.703 128.432C425.831 128.304 425.831 128.112 425.895 127.92C425.895 127.92 425.703 127.792 425.575 127.792C425.447 127.792 425.319 127.728 425.191 127.792L424.487 127.984C423.143 128.368 422.055 127.856 421.543 126.64C421.287 126 421.159 125.424 421.287 124.784C421.351 123.888 421.479 122.992 421.799 122.224C422.567 120.368 423.591 118.704 424.999 117.36C425.255 117.104 425.511 116.912 425.767 116.784C426.023 116.592 426.343 116.592 426.663 116.72C428.071 117.488 428.967 118.64 429.415 120.176C429.735 121.008 429.863 121.904 429.799 122.736C429.863 123.888 429.607 125.04 429.351 126.128ZM473.007 125.936C473.007 125.936 472.943 125.872 472.879 125.872C472.687 126.128 472.431 126.32 472.303 126.576L467.695 132.848C466.607 134.32 465.455 135.728 464.175 137.072C463.983 137.264 463.727 137.456 463.471 137.584C463.407 137.648 463.343 137.648 463.279 137.584C463.215 137.584 463.151 137.52 463.151 137.456C463.087 136.816 463.215 136.176 463.407 135.6L464.687 131.248C465.263 129.392 465.775 127.472 466.159 125.616C466.415 124.4 466.479 123.184 466.415 122.032C466.415 121.648 466.351 121.264 466.223 120.88C465.967 119.984 465.263 119.408 464.303 119.344C463.727 119.28 463.087 119.344 462.447 119.28C461.871 119.28 461.487 119.536 461.167 119.92L460.655 120.496C459.055 122.736 457.519 124.912 456.111 127.216C455.151 128.816 454.191 130.352 453.231 131.888C453.039 132.144 452.847 132.4 452.591 132.592C452.591 132.656 452.527 132.656 452.463 132.656C452.399 132.592 452.335 132.528 452.399 132.464C452.399 132.08 452.399 131.696 452.527 131.376C452.975 129.2 453.487 127.088 453.999 124.912C454.447 123.184 454.639 121.456 454.831 119.728C454.895 118.704 454.767 117.68 454.511 116.72C454.319 115.952 453.871 115.312 453.039 115.184C451.887 114.928 450.799 114.928 449.647 115.12C449.391 115.12 449.135 115.312 449.007 115.44C448.623 115.888 448.303 116.336 447.983 116.848C445.807 120.368 443.503 123.824 441.583 127.536L440.943 128.688C440.815 128.816 440.751 129.008 440.623 129.136L440.431 129.264C440.367 129.136 440.303 129.008 440.303 128.944L441.839 124.144C442.479 122.224 443.055 120.304 443.439 118.32C443.759 116.656 443.823 115.056 443.631 113.392C443.567 112.752 443.375 112.176 443.055 111.6C442.671 110.96 442.159 110.576 441.391 110.576H440.047C439.791 110.576 439.599 110.768 439.471 111.024C439.407 111.216 439.279 111.472 439.215 111.728C438.255 115.824 437.039 119.856 435.823 123.888C435.247 126 434.671 128.176 434.415 130.352C434.223 131.824 434.159 133.232 434.287 134.704C434.287 135.216 434.415 135.728 434.607 136.176C434.799 136.624 435.119 136.88 435.631 136.944C436.207 137.008 436.847 137.008 437.487 137.072C438.063 137.072 438.447 136.816 438.767 136.368L439.919 134.448C441.263 131.888 442.607 129.328 444.015 126.768C445.167 124.528 446.511 122.352 447.919 120.24C448.047 119.984 448.303 119.792 448.495 119.536C448.559 119.536 448.623 119.472 448.687 119.536L448.751 119.6C448.815 119.792 448.815 119.984 448.751 120.176C448.303 123.376 447.791 126.512 447.791 129.648C447.727 129.968 447.727 130.16 447.727 130.352C447.471 131.696 447.663 133.104 447.855 134.448C447.983 134.96 448.111 135.472 448.303 135.92C448.495 136.304 448.879 136.624 449.327 136.624L451.055 136.816C451.695 136.816 452.271 136.624 452.655 135.984L453.871 133.872C454.703 132.4 455.407 130.864 456.239 129.328C457.327 127.28 458.543 125.296 459.951 123.44C460.207 123.12 460.463 122.864 460.719 122.608C460.719 122.544 460.847 122.544 460.911 122.544C460.975 122.608 461.103 122.736 461.103 122.8C461.039 123.376 460.975 123.952 460.911 124.528L460.335 129.584C460.271 130.48 460.207 131.312 460.079 132.208C459.887 133.616 459.887 134.96 459.951 136.368C459.951 136.88 460.079 137.328 460.271 137.84C460.591 138.608 461.103 139.056 461.935 139.184C462.319 139.248 462.703 139.248 463.087 139.248C463.535 139.248 463.983 139.12 464.303 138.8C464.751 138.352 465.135 137.904 465.519 137.392C468.271 134 470.511 130.288 472.879 126.64L473.071 126.128C473.071 126.064 473.071 126 473.007 125.936ZM499.303 110.96C499.175 110.256 498.919 109.68 498.599 109.04C498.343 108.528 497.895 108.208 497.319 108.144C496.103 108.016 494.951 108.08 493.863 108.784C493.351 109.104 492.839 109.552 492.391 110C492.135 110.256 492.007 110.32 491.751 110.128C488.103 108.08 484.199 106.8 480.039 106.224C479.079 106.096 478.183 106.096 477.223 105.968C476.327 105.84 475.367 105.776 474.407 105.776H470.887C470.375 105.776 469.927 105.776 469.479 105.84C468.135 106.032 466.855 106.16 465.511 106.224C464.039 106.288 462.631 106.608 461.223 106.864C457.383 107.568 453.543 108.464 449.767 109.488C445.991 110.512 442.279 111.6 438.567 112.624C435.367 113.52 432.103 114.224 428.775 114.608C427.687 114.736 426.663 114.48 425.703 113.968C424.871 113.52 424.295 112.816 423.975 111.984C423.719 111.28 423.527 110.576 423.719 109.744C424.103 108.08 424.999 106.8 426.151 105.648C427.047 104.752 428.199 104.112 429.351 103.536C429.991 103.216 430.567 102.96 431.335 103.28C431.399 103.28 431.463 103.216 431.527 103.216C431.719 103.216 431.911 102.896 431.783 102.704C431.719 102.576 431.591 102.448 431.463 102.384C431.207 102.256 430.887 102.192 430.631 102.192C428.775 102.192 427.047 102.256 425.383 102.96C423.463 103.792 421.799 104.816 420.583 106.48C419.687 107.696 419.239 108.976 419.303 110.448C419.367 111.664 419.751 112.688 420.583 113.52C421.479 114.416 422.375 115.056 423.527 115.248C424.231 115.376 424.935 115.568 425.703 115.696C427.303 115.952 428.903 115.888 430.503 115.76C432.103 115.632 433.639 115.376 435.175 114.928L441.831 113.008C444.903 112.112 447.975 111.024 451.111 110.192C453.799 109.488 456.551 108.72 459.303 108.144C461.479 107.696 463.655 107.248 465.831 106.992C466.919 106.864 468.007 106.736 469.159 106.672C470.375 106.608 471.591 106.608 472.871 106.544C475.431 106.416 478.055 106.672 480.615 107.12C483.687 107.632 486.631 108.72 489.383 110.256C489.831 110.512 490.279 110.832 490.663 111.024C490.791 111.088 490.855 111.216 490.983 111.28C491.175 111.472 491.239 111.664 491.111 111.984C490.279 113.456 489.767 114.992 489.383 116.656C489.127 117.744 488.935 118.832 488.999 119.92C489.063 121.136 489.383 122.288 489.959 123.376C490.535 124.4 492.455 124.592 493.287 123.632C493.671 123.184 493.991 122.672 494.183 122.096C494.567 121.328 494.759 120.496 495.015 119.664C495.271 118.704 495.271 117.744 495.079 116.784C494.887 115.76 494.631 114.736 494.311 113.776C494.183 113.392 494.119 112.944 494.247 112.56C494.631 111.408 495.335 110.512 496.167 109.68C496.359 109.488 496.679 109.488 496.871 109.744C497.255 110.32 497.511 110.896 497.639 111.6C497.831 112.688 498.023 113.84 497.895 114.992C497.767 116.144 497.767 117.296 497.575 118.448C497.319 120.048 496.999 121.712 496.615 123.312C495.911 126.384 495.015 129.328 493.607 132.144C492.519 134.32 491.303 136.304 490.087 138.352C488.231 141.552 483.751 143.216 480.231 143.024C478.183 142.896 476.007 141.424 475.687 140.912C475.367 140.4 474.983 139.888 474.855 139.248C474.727 138.672 474.535 137.84 474.471 137.264C474.471 136.432 474.535 135.6 474.727 134.768C475.047 132.976 475.559 131.312 476.135 129.648C476.327 129.264 476.519 128.88 477.095 128.816C478.375 128.688 479.527 128.176 480.615 127.536C482.471 126.448 484.135 125.104 485.607 123.568C486.055 123.056 486.503 122.48 486.887 121.904C487.143 121.456 487.335 120.88 487.335 120.304C487.399 119.408 486.887 118.64 486.055 118.448C485.287 118.192 484.519 118 483.687 118H481.383C479.527 118.064 477.799 118.64 476.327 119.792C474.983 120.816 473.895 121.968 472.935 123.312C471.847 124.912 471.015 126.576 470.311 128.368C469.543 130.096 469.223 131.952 469.223 133.872C469.223 134.512 469.223 135.152 469.287 135.728C469.351 136.304 469.479 136.816 469.607 137.328C469.927 138.16 470.567 139.312 471.079 140.08C472.039 141.488 473.255 142.256 474.983 142.768C476.327 143.152 477.863 143.664 480.359 143.792C483.495 143.984 487.079 142.256 487.783 141.744C488.231 141.424 488.679 141.104 489.063 140.72C490.407 139.376 491.495 137.968 492.455 136.368C493.543 134.576 494.439 132.72 495.335 130.864C495.591 130.352 495.847 129.84 496.039 129.328C497.063 126.512 498.023 123.696 498.535 120.752C498.919 118.512 499.367 116.272 499.367 114.032V113.648C499.559 112.752 499.495 111.856 499.303 110.96ZM493.607 117.04C493.607 118.768 493.223 120.496 492.519 122.096L492.135 122.608H492.071C492.007 122.608 491.943 122.608 491.943 122.544C491.943 122.48 491.879 122.416 491.879 122.288C491.879 121.584 491.879 120.88 491.943 120.176C492.071 118.512 492.519 116.912 493.095 115.312C493.095 115.312 493.095 115.248 493.159 115.248C493.223 115.184 493.287 115.12 493.351 115.12C493.415 115.12 493.479 115.184 493.479 115.248C493.479 115.44 493.607 115.568 493.607 115.76V117.04ZM476.903 127.856C477.991 125.488 479.335 123.312 481.319 121.584L482.087 121.072C482.215 121.008 482.535 121.136 482.535 121.328C482.535 121.456 482.535 121.584 482.599 121.776C482.471 122.032 482.407 122.416 482.279 122.8C482.023 123.504 481.639 124.144 481.191 124.784C480.295 126.064 479.143 127.152 477.863 127.984C477.607 128.112 477.351 128.176 477.159 128.304C477.095 128.304 477.031 128.24 476.967 128.24C476.967 128.176 476.903 128.112 476.903 128.048V127.856Z" fill="white"/>
</g>
<g filter="url(#filter1_d_185_123)">
<path d="M204.098 104.299C204.098 159.416 159.416 204.098 104.299 204.098C49.1815 204.098 4.5 159.416 4.5 104.299C4.5 49.1815 49.1815 4.5 104.299 4.5C159.416 4.5 204.098 49.1815 204.098 104.299Z" fill="url(#paint1_radial_185_123)" stroke="white"/>
<path d="M181.292 147.965C183.41 148.269 190.977 147.358 190.977 147.358L195.747 147.671C202.63 132.487 203.091 126.279 204.597 118.588C204.102 115.664 203.304 113.684 202.176 113.492C196.365 114.464 189.766 106.304 187.194 102.103L179.324 91.9278L175.39 86.4607L170.85 79.9307C169.992 79.0195 167.883 77.1971 166.31 77.1971C164.342 77.1971 157.684 75.0711 157.381 74.7673C157.078 74.4636 152.084 72.3375 150.117 71.4264C148.149 70.5152 146.636 70.0596 145.728 69.604C144.82 69.1484 140.885 68.0854 139.977 67.4779C139.069 66.8705 135.135 64.8963 133.773 64.2888C132.683 63.8029 127.871 61.4541 125.601 60.3404L120.455 58.0625C119.295 57.7587 115.794 56.3312 111.072 53.051C106.351 51.2286 105.473 51.8867 105.624 52.4435V54.7215C105.675 56.2401 105.867 59.3988 106.23 59.8848C106.684 60.4923 108.802 64.137 110.618 65.5037C117.835 70.9349 124.439 74.9834 130.746 82.0567C140.89 90.3156 152.425 100.143 152.992 113.796C150.448 118.902 153.749 120.981 153.749 125.489L155.867 130.956L158.44 136.12L162.526 141.739C168.164 147.186 173.657 146.871 181.292 147.965Z" fill="white"/>
<path d="M28.6155 147.965C26.4968 148.269 18.9301 147.358 18.9301 147.358L14.1604 147.671C7.27719 132.487 6.81593 126.279 5.31055 118.588C5.80565 115.664 6.60323 113.684 7.73136 113.492C13.5426 114.464 20.1408 106.304 22.7135 102.103L30.5829 91.9278L34.5176 86.4607L39.0576 79.9307C39.9152 79.0195 42.0238 77.1971 43.5976 77.1971C45.565 77.1971 52.2237 75.0711 52.5264 74.7673C52.8291 74.4636 57.8231 72.3375 59.7904 71.4264C61.7578 70.5152 63.2711 70.0596 64.1791 69.604C65.0872 69.1484 69.0219 68.0854 69.9299 67.4779C70.8379 66.8705 74.7726 64.8963 76.1346 64.2888C77.2242 63.8029 82.0366 61.4541 84.3066 60.3404L89.452 58.0625C90.6123 57.7587 94.1131 56.3312 98.8347 53.051C103.556 51.2286 104.434 51.8867 104.283 52.4435V54.7215C104.232 56.2401 104.041 59.3988 103.677 59.8848C103.223 60.4923 101.105 64.137 99.2888 65.5037C92.0723 70.9349 85.468 74.9834 79.1613 82.0567C69.0171 90.3156 57.482 100.143 56.9151 113.796C59.4594 118.902 56.1584 120.981 56.1584 125.489L54.0397 130.956L51.467 136.12L47.381 141.739C41.7437 147.186 36.2503 146.871 28.6155 147.965Z" fill="white"/>
<path d="M257.821 96.752C257.693 94.256 256.157 92.464 253.725 91.76C252.381 91.376 251.037 91.44 249.821 91.376C249.373 91.376 249.053 91.44 248.733 91.376C246.749 91.312 244.893 91.824 243.101 92.592C241.437 93.296 239.837 94.192 238.429 95.28C234.717 98.032 231.645 101.36 229.277 105.328C228.317 106.992 227.421 108.72 226.845 110.512C226.397 111.92 226.141 113.328 226.205 114.8C226.269 116.4 227.037 117.616 228.509 118.32C229.085 118.576 229.661 118.768 230.301 118.96C232.093 119.344 233.949 119.536 235.869 119.664C237.149 119.728 238.429 119.664 239.773 119.728C241.117 119.792 242.525 119.856 243.869 120.048C245.853 120.304 247.069 121.776 247.197 123.76C247.261 125.168 247.005 126.448 246.493 127.792C246.301 128.176 246.045 128.56 245.661 128.752L244.893 129.264C241.501 131.248 238.109 133.296 234.781 135.344C233.757 135.984 232.733 136.688 231.773 137.52C230.813 138.224 229.981 139.12 229.213 139.952C228.573 140.656 228.125 141.488 227.933 142.448C227.869 143.216 228.253 143.984 228.957 144.24C229.853 144.496 230.813 144.688 231.773 144.56C232.797 144.432 233.821 144.304 234.845 143.92C237.277 143.088 239.581 141.936 241.693 140.464C244.573 138.416 246.941 135.856 248.925 132.976C250.077 131.248 251.101 129.328 251.613 127.28C251.997 125.808 252.253 124.336 251.869 122.864C251.485 121.328 250.717 120.24 249.373 119.536C248.797 119.152 248.157 118.896 247.517 118.768C245.853 118.32 244.189 118.064 242.525 118C241.437 117.936 240.413 117.936 239.325 118C237.661 118 235.997 117.744 234.333 117.552C233.821 117.488 233.309 117.296 232.861 117.104C232.093 116.72 231.645 116.08 231.581 115.184C231.581 114.416 231.645 113.584 231.837 112.816C232.349 111.088 233.181 109.552 234.013 108.016C235.421 105.52 237.213 103.28 239.133 101.168C241.309 98.8 243.741 96.752 246.493 95.152C247.389 94.704 248.285 94.256 249.245 94C249.821 93.808 250.333 93.936 250.781 94.384C251.485 95.024 251.933 95.856 252.061 96.816C252.189 98.096 252.125 99.44 251.869 100.72C251.421 102.384 250.717 103.984 249.949 105.584C249.565 106.224 249.245 106.864 248.925 107.568C248.669 108.08 248.925 108.528 249.501 108.656C250.269 108.848 251.037 108.848 251.677 108.4C252.125 108.08 252.573 107.76 253.021 107.376C255.133 105.264 256.541 102.704 257.437 99.888C257.821 98.864 257.821 97.84 257.821 96.752ZM244.957 131.12C244.893 131.312 244.765 131.568 244.637 131.76C243.037 134.448 241.117 136.944 238.813 138.992C236.893 140.72 234.717 142 232.285 142.832C231.901 142.96 231.517 143.024 231.389 143.024C230.813 143.024 230.429 142.64 230.557 142.256C230.621 142.064 230.685 141.808 230.813 141.552C231.133 140.912 231.581 140.336 232.093 139.76C233.117 138.672 234.205 137.648 235.421 136.752C238.301 134.512 241.501 132.656 244.637 130.8C244.701 130.736 244.893 130.736 244.957 130.8C245.021 130.864 245.021 130.992 244.957 131.12ZM292.742 124.528C292.358 124.464 292.038 124.592 291.654 124.72C291.334 124.912 291.078 124.784 290.95 124.4C290.694 123.824 290.63 123.184 290.63 122.544C290.694 121.264 290.758 119.92 290.758 118.576C290.822 117.808 290.886 116.976 290.886 116.144C290.886 115.76 290.822 115.376 290.758 115.056C290.694 114.608 290.374 114.352 289.99 114.288H288.134C287.814 114.288 287.622 114.48 287.494 114.672C287.366 114.928 287.238 115.12 287.174 115.376C286.662 116.656 286.214 117.936 285.766 119.28C284.23 123.504 282.438 127.6 280.134 131.44C279.238 132.912 278.214 134.384 277.19 135.856C276.87 136.368 276.358 136.752 275.974 137.264C275.846 137.328 275.526 137.264 275.462 137.136C275.398 137.008 275.27 136.816 275.27 136.624C275.27 136.048 275.206 135.472 275.27 134.96L276.038 128.56C276.23 127.152 276.23 125.68 276.166 124.208C276.166 123.44 275.974 122.736 275.654 122.032C275.398 121.264 274.822 120.816 274.054 120.624C273.03 120.368 272.006 120.432 271.046 120.56C270.662 120.56 270.278 120.752 270.022 121.008C269.702 121.392 269.318 121.776 269.062 122.16C268.55 122.864 268.102 123.504 267.654 124.208C266.182 126.512 264.646 128.816 263.11 131.184C262.918 131.504 262.662 131.76 262.406 132.08C262.342 132.144 262.214 132.144 262.086 132.208C262.086 132.144 261.958 132.016 261.958 131.888C262.214 129.84 262.47 127.792 262.854 125.744L263.238 122.928C263.366 121.904 263.302 120.944 262.982 119.984C262.726 119.408 262.406 118.96 261.894 118.704L261.19 118.384C260.038 118 258.822 118.064 257.606 118.192C257.542 118.192 257.478 118.192 257.478 118.256C257.35 118.384 257.158 118.512 257.094 118.64C257.03 118.768 257.03 118.896 257.03 119.024C257.286 121.008 257.03 123.056 256.71 125.04C256.454 126.64 256.198 128.24 256.006 129.904C255.75 131.312 255.878 132.784 256.326 134.192C256.454 134.64 256.646 135.152 256.902 135.536C257.222 136.112 257.798 136.496 258.438 136.56C259.27 136.624 260.102 136.688 260.87 136.816C261.83 136.944 262.598 136.56 263.174 135.792C263.366 135.472 263.622 135.152 263.75 134.832C264.198 134.128 264.582 133.36 264.966 132.656C266.118 130.736 267.206 128.752 268.358 126.768C268.87 125.936 269.51 125.104 270.086 124.272C270.214 124.144 270.342 124.016 270.47 123.824C270.598 123.696 270.854 123.568 270.918 123.696C270.982 123.824 271.11 123.888 271.11 124.016C271.046 125.424 270.918 126.768 270.854 128.176C270.79 129.328 270.662 130.416 270.598 131.568H270.662C270.662 132.272 270.598 132.976 270.662 133.616C270.726 134.896 270.982 136.112 271.494 137.328C271.942 138.352 272.774 138.992 273.926 139.12C274.694 139.184 275.398 139.184 276.166 139.248C276.87 139.248 277.446 138.992 277.894 138.608C278.342 138.224 278.79 137.84 279.11 137.392C279.558 136.816 280.006 136.176 280.39 135.536C281.99 132.976 283.334 130.288 284.55 127.472L286.406 122.928C286.47 122.736 286.598 122.608 286.726 122.48C286.726 122.416 286.79 122.416 286.854 122.416C286.918 122.416 287.046 122.416 287.046 122.48L287.622 124.08C288.006 124.912 288.71 125.488 289.67 125.552C290.31 125.68 291.014 125.68 291.718 125.68C291.974 125.68 292.23 125.616 292.422 125.488C292.678 125.424 292.806 125.168 292.934 124.976C293.062 124.848 292.934 124.592 292.742 124.528ZM320.045 125.36C319.981 125.36 319.917 125.424 319.917 125.424C319.597 125.808 319.341 126.128 319.085 126.448L315.437 131.12C313.837 133.168 311.981 135.088 310.125 136.944C308.653 138.416 307.053 139.76 305.261 140.848C304.173 141.488 303.021 142.064 301.805 142.32C301.229 142.448 300.781 142.32 300.333 142C299.949 141.744 299.565 141.36 299.309 140.976C298.733 140.08 298.413 139.12 298.285 138.16C298.221 137.008 298.221 135.856 298.477 134.768C298.797 132.976 299.309 131.312 299.885 129.648C300.077 129.264 300.269 128.88 300.845 128.816C302.125 128.688 303.277 128.176 304.365 127.536C306.221 126.448 307.885 125.104 309.357 123.568C309.805 123.056 310.253 122.48 310.637 121.904C310.893 121.456 311.085 120.88 311.085 120.304C311.149 119.408 310.637 118.64 309.805 118.448C309.037 118.192 308.269 118 307.437 118H305.133C303.277 118.064 301.549 118.64 300.077 119.792C298.733 120.816 297.645 121.968 296.685 123.312C295.597 124.912 294.765 126.576 294.061 128.368C293.293 130.096 292.973 131.952 292.973 133.872C292.973 134.512 292.973 135.152 293.037 135.728C293.293 137.584 293.933 139.312 295.085 140.784C295.981 141.872 297.069 142.64 298.541 142.96C299.373 143.216 300.269 143.216 301.101 143.28C302.701 143.408 304.109 142.96 305.453 142.256C306.413 141.744 307.309 141.104 308.141 140.464C309.421 139.376 310.573 138.224 311.661 137.072C314.861 133.68 317.485 129.904 319.917 126C320.045 125.872 320.109 125.68 320.173 125.488C320.173 125.488 320.109 125.36 320.045 125.36ZM300.653 127.856C301.741 125.488 303.085 123.312 305.069 121.584L305.837 121.072C305.965 121.008 306.285 121.136 306.285 121.328C306.285 121.456 306.285 121.584 306.349 121.776C306.221 122.032 306.157 122.416 306.029 122.8C305.773 123.504 305.389 124.144 304.941 124.784C304.045 126.064 302.893 127.152 301.613 127.984C301.357 128.112 301.101 128.176 300.909 128.304C300.845 128.304 300.781 128.24 300.717 128.24C300.717 128.176 300.653 128.112 300.653 128.048V127.856ZM343.42 125.36C343.356 125.36 343.292 125.424 343.292 125.424C342.972 125.808 342.716 126.128 342.46 126.448L338.812 131.12C337.212 133.168 335.356 135.088 333.5 136.944C332.028 138.416 330.428 139.76 328.636 140.848C327.548 141.488 326.396 142.064 325.18 142.32C324.604 142.448 324.156 142.32 323.708 142C323.324 141.744 322.94 141.36 322.684 140.976C322.108 140.08 321.788 139.12 321.66 138.16C321.596 137.008 321.596 135.856 321.852 134.768C322.172 132.976 322.684 131.312 323.26 129.648C323.452 129.264 323.644 128.88 324.22 128.816C325.5 128.688 326.652 128.176 327.74 127.536C329.596 126.448 331.26 125.104 332.732 123.568C333.18 123.056 333.628 122.48 334.012 121.904C334.268 121.456 334.46 120.88 334.46 120.304C334.524 119.408 334.012 118.64 333.18 118.448C332.412 118.192 331.644 118 330.812 118H328.508C326.652 118.064 324.924 118.64 323.452 119.792C322.108 120.816 321.02 121.968 320.06 123.312C318.972 124.912 318.14 126.576 317.436 128.368C316.668 130.096 316.348 131.952 316.348 133.872C316.348 134.512 316.348 135.152 316.412 135.728C316.668 137.584 317.308 139.312 318.46 140.784C319.356 141.872 320.444 142.64 321.916 142.96C322.748 143.216 323.644 143.216 324.476 143.28C326.076 143.408 327.484 142.96 328.828 142.256C329.788 141.744 330.684 141.104 331.516 140.464C332.796 139.376 333.948 138.224 335.036 137.072C338.236 133.68 340.86 129.904 343.292 126C343.42 125.872 343.484 125.68 343.548 125.488C343.548 125.488 343.484 125.36 343.42 125.36ZM324.028 127.856C325.116 125.488 326.46 123.312 328.444 121.584L329.212 121.072C329.34 121.008 329.66 121.136 329.66 121.328C329.66 121.456 329.66 121.584 329.724 121.776C329.596 122.032 329.532 122.416 329.404 122.8C329.148 123.504 328.764 124.144 328.316 124.784C327.42 126.064 326.268 127.152 324.988 127.984C324.732 128.112 324.476 128.176 324.284 128.304C324.22 128.304 324.156 128.24 324.092 128.24C324.092 128.176 324.028 128.112 324.028 128.048V127.856ZM365.643 104.688C365.579 104.56 365.515 104.368 365.451 104.368C365.003 104.24 364.555 104.176 364.107 104.112C362.827 104.048 361.483 104.048 360.139 103.984V104.048C359.307 104.048 358.411 103.984 357.515 104.048C355.083 104.176 355.339 104.048 356.235 102C356.555 101.296 356.939 100.656 357.195 99.952L357.963 97.776C358.155 97.2 358.155 96.56 358.091 95.92C358.091 95.408 357.707 94.96 357.131 94.96C356.171 94.896 355.275 94.896 354.315 94.832C353.291 94.832 352.459 95.216 351.755 95.92C350.987 96.56 350.411 97.392 349.835 98.224C349.003 99.568 348.235 100.976 347.595 102.384C347.275 102.96 347.019 103.536 346.763 104.112C346.571 104.432 346.315 104.688 345.867 104.688C344.395 104.816 342.859 104.944 341.387 105.136C340.107 105.264 337.291 106.928 344.907 106.416H345.291C345.419 106.416 345.611 106.672 345.611 106.8C345.483 107.12 345.419 107.44 345.291 107.696C343.883 111.536 342.795 115.504 342.091 119.536C341.643 121.776 341.387 124.016 341.259 126.32C341.067 128.432 341.259 130.608 341.579 132.72C341.771 134.064 342.091 135.408 342.603 136.752C342.923 137.392 343.179 137.968 343.627 138.544C344.267 139.312 345.035 139.76 346.059 139.888C346.443 139.888 346.827 139.888 347.211 139.952C348.427 140.016 349.387 139.568 350.283 138.8C350.731 138.416 351.115 138.032 351.499 137.584C352.203 136.816 352.907 135.984 353.483 135.088C354.891 133.104 356.235 131.056 357.579 128.944C358.027 128.368 358.347 127.664 358.731 127.024C358.923 126.768 358.987 126.448 359.115 126.128C359.115 126.064 359.051 125.872 358.987 125.808C358.923 125.744 358.731 125.744 358.667 125.808C358.347 126 358.219 126.256 358.091 126.512C356.619 128.944 354.955 131.248 353.227 133.552C352.331 134.832 351.307 136.048 350.155 137.072C349.515 137.648 348.875 138.096 348.171 138.608C347.979 138.736 347.723 138.8 347.531 138.928C347.339 138.992 347.083 138.928 347.019 138.8C346.763 138.544 346.571 138.352 346.443 138.032C345.995 137.072 345.739 136.048 345.611 134.96C345.483 133.552 345.419 132.208 345.483 130.8C345.611 128.688 345.867 126.512 346.251 124.4C346.699 121.968 347.275 119.472 347.915 117.04C348.107 116.464 348.299 115.824 348.683 115.312C350.475 112.752 352.075 110 353.611 107.312C353.739 106.992 353.931 106.736 354.059 106.48C354.315 106.032 354.635 105.84 355.083 105.776C356.811 105.712 358.539 105.584 360.203 105.456C361.931 105.328 363.595 105.2 365.323 105.008C365.323 105.008 365.387 104.944 365.451 104.944C365.579 104.88 365.643 104.816 365.643 104.688ZM413.805 95.856C413.805 95.344 413.613 94.768 413.421 94.256C413.165 93.744 412.781 93.296 412.141 93.232C411.245 93.104 410.285 93.168 409.389 93.296C408.685 93.424 408.109 93.872 407.853 94.576C407.661 95.088 407.469 95.6 407.405 96.176L406.829 99.696C406.445 102.384 405.997 105.072 405.485 107.76C405.037 110.576 404.525 113.392 404.013 116.272C403.885 116.976 403.501 117.36 402.797 117.488C399.469 118 396.205 118.768 392.941 119.6C392.749 119.664 392.621 119.664 392.429 119.664C392.237 119.728 391.981 119.536 392.045 119.344L392.237 118.256C393.069 115.504 393.901 112.752 394.669 110C395.309 107.696 395.949 105.456 396.525 103.152C396.909 101.552 396.845 99.952 396.653 98.288C396.461 96.88 395.693 95.728 394.285 95.216C393.453 94.896 392.493 94.704 391.533 94.896C391.213 95.024 390.829 95.024 390.445 95.024C389.421 95.024 388.461 95.344 387.501 95.664C386.093 96.176 384.813 96.944 383.597 97.84C380.589 100.016 378.285 102.896 376.557 106.16C375.789 107.504 375.341 108.912 375.021 110.384C374.829 111.472 374.893 112.496 375.213 113.52C375.597 114.864 376.493 115.76 377.837 116.208C379.245 116.72 380.781 116.656 382.253 116.464C382.445 116.464 382.637 116.336 382.765 116.272C382.893 116.272 383.021 116.208 383.085 116.08C383.341 115.952 383.469 115.76 383.469 115.504C383.469 115.184 383.277 114.992 383.021 114.992C382.061 114.864 381.677 114.288 381.357 113.456C380.973 112.368 380.909 111.28 381.165 110.128C381.869 106.608 383.469 103.536 385.645 100.784C386.349 99.888 387.245 99.184 388.013 98.416C388.525 97.968 389.165 97.584 389.805 97.328C390.061 97.2 390.445 97.392 390.509 97.712C390.573 98.544 390.509 99.312 390.381 100.144C389.933 102.704 389.357 105.264 388.589 107.76C387.501 111.408 386.477 115.056 385.389 118.704L384.621 121.584C384.493 122.16 384.173 122.416 383.661 122.672L382.125 123.248C380.589 123.952 379.053 124.656 377.517 125.424C376.877 125.744 376.237 126.128 375.661 126.576C375.469 126.704 375.277 126.896 375.149 127.088C375.021 127.28 375.149 127.664 375.341 127.728C375.789 127.856 376.237 127.856 376.621 127.728L378.029 127.152C379.693 126.512 381.421 125.872 383.085 125.168C383.533 125.04 383.725 125.168 383.661 125.552C383.533 126.256 383.341 126.896 383.213 127.6C382.509 131.12 381.549 134.64 381.485 138.288C381.229 139.248 381.485 140.272 381.549 141.232C381.741 143.28 382.765 144.688 384.493 145.712C385.773 146.48 387.053 146.544 388.461 146.032C388.653 145.968 388.781 145.712 388.845 145.456C388.973 145.2 388.845 144.944 388.589 144.88C387.565 144.688 387.373 143.92 387.373 143.088C387.373 142.064 387.373 141.04 387.565 140.08C387.885 138.352 388.141 136.624 388.461 134.896C389.037 131.184 389.933 127.472 390.829 123.76C390.893 123.504 391.021 123.184 391.085 122.864C391.213 122.608 391.469 122.352 391.725 122.224C392.109 122.096 392.429 121.968 392.813 121.904C394.541 121.392 396.269 120.88 397.997 120.432C399.597 119.984 401.197 119.664 402.733 119.28C403.181 119.216 403.437 119.408 403.373 119.92C403.309 120.752 403.181 121.648 403.053 122.48C402.733 124.848 402.477 127.216 402.093 129.52C401.901 130.992 401.837 132.4 401.645 133.808C401.517 135.088 401.453 136.432 401.389 138.224C401.389 138.736 401.389 139.696 401.517 140.72C401.517 141.296 401.645 141.808 401.773 142.384C402.029 143.088 402.221 143.792 402.541 144.496C403.117 145.52 403.949 146.224 405.165 146.416C406.061 146.608 407.021 146.544 407.917 146.416C408.429 146.352 408.877 146.16 409.197 145.712C409.325 145.52 409.261 145.136 409.069 145.072L408.557 144.88C407.981 144.816 407.661 144.496 407.533 143.92C407.341 143.152 407.213 142.384 407.213 141.552C407.021 138.8 407.341 136.048 407.661 133.36C408.045 130.288 408.621 127.28 409.133 124.336C409.453 122.544 409.837 120.752 410.157 119.024C410.285 118.512 410.477 118.192 410.925 118L411.565 117.616C411.821 117.424 411.757 116.976 411.437 116.848C410.861 116.72 410.669 116.4 410.797 115.76C411.437 112.368 412.013 108.912 412.589 105.456C413.037 102.896 413.421 100.336 413.805 97.712C413.869 97.136 413.933 96.496 413.805 95.856ZM431.911 118.192C431.783 117.424 431.399 116.784 430.951 116.144C430.247 115.184 429.287 114.672 428.071 114.608C427.495 114.544 426.919 114.608 426.343 114.672C425.575 114.736 424.743 114.864 423.911 115.056C421.287 115.504 419.175 116.912 417.575 119.088C416.743 120.304 416.167 121.648 416.231 123.184C416.295 124.016 416.103 124.656 415.527 125.232C415.271 125.488 415.015 125.808 414.823 126.128C413.671 127.92 413.095 129.904 413.223 132.016C413.287 133.488 413.735 134.896 414.695 136.048C415.527 137.2 416.679 137.776 418.023 137.904C418.343 137.968 418.663 137.904 418.983 137.904V137.968C419.687 137.904 420.391 137.776 421.031 137.712C422.759 137.52 424.167 136.816 425.447 135.728C426.087 135.152 426.663 134.576 427.175 133.936C427.687 133.36 428.071 132.784 428.519 132.144C430.695 128.88 431.911 125.296 432.231 121.392C432.359 120.304 432.167 119.216 431.911 118.192ZM429.351 126.128C428.711 128.432 427.751 130.608 426.343 132.592C425.383 133.872 424.359 135.024 422.951 135.856C422.375 136.24 421.735 136.496 421.095 136.816C420.711 136.944 420.263 136.88 419.879 136.624C419.431 136.304 419.111 135.92 418.919 135.472C418.663 134.96 418.471 134.448 418.471 133.872C418.407 132.336 418.663 130.864 419.111 129.392C419.175 129.072 419.495 128.88 419.815 129.008C421.607 129.52 423.335 129.072 425.063 128.816C425.255 128.752 425.511 128.56 425.703 128.432C425.831 128.304 425.831 128.112 425.895 127.92C425.895 127.92 425.703 127.792 425.575 127.792C425.447 127.792 425.319 127.728 425.191 127.792L424.487 127.984C423.143 128.368 422.055 127.856 421.543 126.64C421.287 126 421.159 125.424 421.287 124.784C421.351 123.888 421.479 122.992 421.799 122.224C422.567 120.368 423.591 118.704 424.999 117.36C425.255 117.104 425.511 116.912 425.767 116.784C426.023 116.592 426.343 116.592 426.663 116.72C428.071 117.488 428.967 118.64 429.415 120.176C429.735 121.008 429.863 121.904 429.799 122.736C429.863 123.888 429.607 125.04 429.351 126.128ZM473.007 125.936C473.007 125.936 472.943 125.872 472.879 125.872C472.687 126.128 472.431 126.32 472.303 126.576L467.695 132.848C466.607 134.32 465.455 135.728 464.175 137.072C463.983 137.264 463.727 137.456 463.471 137.584C463.407 137.648 463.343 137.648 463.279 137.584C463.215 137.584 463.151 137.52 463.151 137.456C463.087 136.816 463.215 136.176 463.407 135.6L464.687 131.248C465.263 129.392 465.775 127.472 466.159 125.616C466.415 124.4 466.479 123.184 466.415 122.032C466.415 121.648 466.351 121.264 466.223 120.88C465.967 119.984 465.263 119.408 464.303 119.344C463.727 119.28 463.087 119.344 462.447 119.28C461.871 119.28 461.487 119.536 461.167 119.92L460.655 120.496C459.055 122.736 457.519 124.912 456.111 127.216C455.151 128.816 454.191 130.352 453.231 131.888C453.039 132.144 452.847 132.4 452.591 132.592C452.591 132.656 452.527 132.656 452.463 132.656C452.399 132.592 452.335 132.528 452.399 132.464C452.399 132.08 452.399 131.696 452.527 131.376C452.975 129.2 453.487 127.088 453.999 124.912C454.447 123.184 454.639 121.456 454.831 119.728C454.895 118.704 454.767 117.68 454.511 116.72C454.319 115.952 453.871 115.312 453.039 115.184C451.887 114.928 450.799 114.928 449.647 115.12C449.391 115.12 449.135 115.312 449.007 115.44C448.623 115.888 448.303 116.336 447.983 116.848C445.807 120.368 443.503 123.824 441.583 127.536L440.943 128.688C440.815 128.816 440.751 129.008 440.623 129.136L440.431 129.264C440.367 129.136 440.303 129.008 440.303 128.944L441.839 124.144C442.479 122.224 443.055 120.304 443.439 118.32C443.759 116.656 443.823 115.056 443.631 113.392C443.567 112.752 443.375 112.176 443.055 111.6C442.671 110.96 442.159 110.576 441.391 110.576H440.047C439.791 110.576 439.599 110.768 439.471 111.024C439.407 111.216 439.279 111.472 439.215 111.728C438.255 115.824 437.039 119.856 435.823 123.888C435.247 126 434.671 128.176 434.415 130.352C434.223 131.824 434.159 133.232 434.287 134.704C434.287 135.216 434.415 135.728 434.607 136.176C434.799 136.624 435.119 136.88 435.631 136.944C436.207 137.008 436.847 137.008 437.487 137.072C438.063 137.072 438.447 136.816 438.767 136.368L439.919 134.448C441.263 131.888 442.607 129.328 444.015 126.768C445.167 124.528 446.511 122.352 447.919 120.24C448.047 119.984 448.303 119.792 448.495 119.536C448.559 119.536 448.623 119.472 448.687 119.536L448.751 119.6C448.815 119.792 448.815 119.984 448.751 120.176C448.303 123.376 447.791 126.512 447.791 129.648C447.727 129.968 447.727 130.16 447.727 130.352C447.471 131.696 447.663 133.104 447.855 134.448C447.983 134.96 448.111 135.472 448.303 135.92C448.495 136.304 448.879 136.624 449.327 136.624L451.055 136.816C451.695 136.816 452.271 136.624 452.655 135.984L453.871 133.872C454.703 132.4 455.407 130.864 456.239 129.328C457.327 127.28 458.543 125.296 459.951 123.44C460.207 123.12 460.463 122.864 460.719 122.608C460.719 122.544 460.847 122.544 460.911 122.544C460.975 122.608 461.103 122.736 461.103 122.8C461.039 123.376 460.975 123.952 460.911 124.528L460.335 129.584C460.271 130.48 460.207 131.312 460.079 132.208C459.887 133.616 459.887 134.96 459.951 136.368C459.951 136.88 460.079 137.328 460.271 137.84C460.591 138.608 461.103 139.056 461.935 139.184C462.319 139.248 462.703 139.248 463.087 139.248C463.535 139.248 463.983 139.12 464.303 138.8C464.751 138.352 465.135 137.904 465.519 137.392C468.271 134 470.511 130.288 472.879 126.64L473.071 126.128C473.071 126.064 473.071 126 473.007 125.936ZM499.303 110.96C499.175 110.256 498.919 109.68 498.599 109.04C498.343 108.528 497.895 108.208 497.319 108.144C496.103 108.016 494.951 108.08 493.863 108.784C493.351 109.104 492.839 109.552 492.391 110C492.135 110.256 492.007 110.32 491.751 110.128C488.103 108.08 484.199 106.8 480.039 106.224C479.079 106.096 478.183 106.096 477.223 105.968C476.327 105.84 475.367 105.776 474.407 105.776H470.887C470.375 105.776 469.927 105.776 469.479 105.84C468.135 106.032 466.855 106.16 465.511 106.224C464.039 106.288 462.631 106.608 461.223 106.864C457.383 107.568 453.543 108.464 449.767 109.488C445.991 110.512 442.279 111.6 438.567 112.624C435.367 113.52 432.103 114.224 428.775 114.608C427.687 114.736 426.663 114.48 425.703 113.968C424.871 113.52 424.295 112.816 423.975 111.984C423.719 111.28 423.527 110.576 423.719 109.744C424.103 108.08 424.999 106.8 426.151 105.648C427.047 104.752 428.199 104.112 429.351 103.536C429.991 103.216 430.567 102.96 431.335 103.28C431.399 103.28 431.463 103.216 431.527 103.216C431.719 103.216 431.911 102.896 431.783 102.704C431.719 102.576 431.591 102.448 431.463 102.384C431.207 102.256 430.887 102.192 430.631 102.192C428.775 102.192 427.047 102.256 425.383 102.96C423.463 103.792 421.799 104.816 420.583 106.48C419.687 107.696 419.239 108.976 419.303 110.448C419.367 111.664 419.751 112.688 420.583 113.52C421.479 114.416 422.375 115.056 423.527 115.248C424.231 115.376 424.935 115.568 425.703 115.696C427.303 115.952 428.903 115.888 430.503 115.76C432.103 115.632 433.639 115.376 435.175 114.928L441.831 113.008C444.903 112.112 447.975 111.024 451.111 110.192C453.799 109.488 456.551 108.72 459.303 108.144C461.479 107.696 463.655 107.248 465.831 106.992C466.919 106.864 468.007 106.736 469.159 106.672C470.375 106.608 471.591 106.608 472.871 106.544C475.431 106.416 478.055 106.672 480.615 107.12C483.687 107.632 486.631 108.72 489.383 110.256C489.831 110.512 490.279 110.832 490.663 111.024C490.791 111.088 490.855 111.216 490.983 111.28C491.175 111.472 491.239 111.664 491.111 111.984C490.279 113.456 489.767 114.992 489.383 116.656C489.127 117.744 488.935 118.832 488.999 119.92C489.063 121.136 489.383 122.288 489.959 123.376C490.535 124.4 492.455 124.592 493.287 123.632C493.671 123.184 493.991 122.672 494.183 122.096C494.567 121.328 494.759 120.496 495.015 119.664C495.271 118.704 495.271 117.744 495.079 116.784C494.887 115.76 494.631 114.736 494.311 113.776C494.183 113.392 494.119 112.944 494.247 112.56C494.631 111.408 495.335 110.512 496.167 109.68C496.359 109.488 496.679 109.488 496.871 109.744C497.255 110.32 497.511 110.896 497.639 111.6C497.831 112.688 498.023 113.84 497.895 114.992C497.767 116.144 497.767 117.296 497.575 118.448C497.319 120.048 496.999 121.712 496.615 123.312C495.911 126.384 495.015 129.328 493.607 132.144C492.519 134.32 491.303 136.304 490.087 138.352C488.231 141.552 483.751 143.216 480.231 143.024C478.183 142.896 476.007 141.424 475.687 140.912C475.367 140.4 474.983 139.888 474.855 139.248C474.727 138.672 474.535 137.84 474.471 137.264C474.471 136.432 474.535 135.6 474.727 134.768C475.047 132.976 475.559 131.312 476.135 129.648C476.327 129.264 476.519 128.88 477.095 128.816C478.375 128.688 479.527 128.176 480.615 127.536C482.471 126.448 484.135 125.104 485.607 123.568C486.055 123.056 486.503 122.48 486.887 121.904C487.143 121.456 487.335 120.88 487.335 120.304C487.399 119.408 486.887 118.64 486.055 118.448C485.287 118.192 484.519 118 483.687 118H481.383C479.527 118.064 477.799 118.64 476.327 119.792C474.983 120.816 473.895 121.968 472.935 123.312C471.847 124.912 471.015 126.576 470.311 128.368C469.543 130.096 469.223 131.952 469.223 133.872C469.223 134.512 469.223 135.152 469.287 135.728C469.351 136.304 469.479 136.816 469.607 137.328C469.927 138.16 470.567 139.312 471.079 140.08C472.039 141.488 473.255 142.256 474.983 142.768C476.327 143.152 477.863 143.664 480.359 143.792C483.495 143.984 487.079 142.256 487.783 141.744C488.231 141.424 488.679 141.104 489.063 140.72C490.407 139.376 491.495 137.968 492.455 136.368C493.543 134.576 494.439 132.72 495.335 130.864C495.591 130.352 495.847 129.84 496.039 129.328C497.063 126.512 498.023 123.696 498.535 120.752C498.919 118.512 499.367 116.272 499.367 114.032V113.648C499.559 112.752 499.495 111.856 499.303 110.96ZM493.607 117.04C493.607 118.768 493.223 120.496 492.519 122.096L492.135 122.608H492.071C492.007 122.608 491.943 122.608 491.943 122.544C491.943 122.48 491.879 122.416 491.879 122.288C491.879 121.584 491.879 120.88 491.943 120.176C492.071 118.512 492.519 116.912 493.095 115.312C493.095 115.312 493.095 115.248 493.159 115.248C493.223 115.184 493.287 115.12 493.351 115.12C493.415 115.12 493.479 115.184 493.479 115.248C493.479 115.44 493.607 115.568 493.607 115.76V117.04ZM476.903 127.856C477.991 125.488 479.335 123.312 481.319 121.584L482.087 121.072C482.215 121.008 482.535 121.136 482.535 121.328C482.535 121.456 482.535 121.584 482.599 121.776C482.471 122.032 482.407 122.416 482.279 122.8C482.023 123.504 481.639 124.144 481.191 124.784C480.295 126.064 479.143 127.152 477.863 127.984C477.607 128.112 477.351 128.176 477.159 128.304C477.095 128.304 477.031 128.24 476.967 128.24C476.967 128.176 476.903 128.112 476.903 128.048V127.856Z" fill="white"/>
</g>
<defs>
<filter id="filter0_f_185_123" x="0" y="0" width="503.559" height="208.598" filterUnits="userSpaceOnUse" color-interpolation-filters="sRGB">
<feFlood flood-opacity="0" result="BackgroundImageFix"/>
<feBlend mode="normal" in="SourceGraphic" in2="BackgroundImageFix" result="shape"/>
<feGaussianBlur stdDeviation="2" result="effect1_foregroundBlur_185_123"/>
</filter>
<filter id="filter1_d_185_123" x="0" y="4" width="503.559" height="208.598" filterUnits="userSpaceOnUse" color-interpolation-filters="sRGB">
<feFlood flood-opacity="0" result="BackgroundImageFix"/>
<feColorMatrix in="SourceAlpha" type="matrix" values="0 0 0 0 0 0 0 0 0 0 0 0 0 0 0 0 0 0 127 0" result="hardAlpha"/>
<feOffset dy="4"/>
<feGaussianBlur stdDeviation="2"/>
<feComposite in2="hardAlpha" operator="out"/>
<feColorMatrix type="matrix" values="0 0 0 0 0 0 0 0 0 0 0 0 0 0 0 0 0 0 0.25 0"/>
<feBlend mode="normal" in2="BackgroundImageFix" result="effect1_dropShadow_185_123"/>
<feBlend mode="normal" in="SourceGraphic" in2="effect1_dropShadow_185_123" result="shape"/>
</filter>
<radialGradient id="paint0_radial_185_123" cx="0" cy="0" r="1" gradientUnits="userSpaceOnUse" gradientTransform="translate(104.299 104.299) rotate(90) scale(100.299)">
<stop stop-color="#F26B76"/>
<stop offset="1" stop-color="#F26B76"/>
</radialGradient>
<radialGradient id="paint1_radial_185_123" cx="0" cy="0" r="1" gradientUnits="userSpaceOnUse" gradientTransform="translate(104.299 104.299) rotate(90) scale(100.299)">
<stop stop-color="#F26B76"/>
<stop offset="1" stop-color="#F26B76"/>
</radialGradient>
</defs>
</svg>
